{"asset":{"version":"2.0","generator":"Unity 2022.3.8f1 glTFast 6.14.1"},"nodes":[{"name":"Object_2","mesh":0},{"name":"Object_3","mesh":1},{"name":"Object_4","mesh":2},{"name":"Object_5","mesh":3},{"name":"Object_6","mesh":4},{"name":"mx_master.obj.cleaner.materialmerger.gles","children":[0,1,2,3,4]},{"name":"logitech_mx_master_3s","children":[5],"rotation":[0.707106769,0,0,-0.7071067],"scale":[1,1.00000012,1.00000012]}],"buffers":[{"uri":"logitech_mx_master_3s.bin","byteLength":2714184}],"bufferViews":[{"buffer":0,"byteLength":124992,"target":34963},{"buffer":0,"byteLength":208848,"byteOffset":124992,"target":34963},{"buffer":0,"byteLength":199776,"byteOffset":333840,"target":34963},{"buffer":0,"byteLength":50448,"byteOffset":533616,"target":34963},{"buffer":0,"byteLength":262296,"byteOffset":584064,"target":34963},{"buffer":0,"byteLength":268480,"byteOffset":846360,"byteStride":40,"target":34962},{"buffer":0,"byteLength":53696,"byteOffset":1114840,"byteStride":8,"target":34962},{"buffer":0,"byteLength":378920,"byteOffset":1168536,"byteStride":40,"target":34962},{"buffer":0,"byteLength":75784,"byteOffset":1547456,"byteStride":8,"target":34962},{"buffer":0,"byteLength":370040,"byteOffset":1623240,"byteStride":40,"target":34962},{"buffer":0,"byteLength":74008,"byteOffset":1993280,"byteStride":8,"target":34962},{"buffer":0,"byteLength":91040,"byteOffset":2067288,"byteStride":40,"target":34962},{"buffer":0,"byteLength":18208,"byteOffset":2158328,"byteStride":8,"target":34962},{"buffer":0,"byteLength":448040,"byteOffset":2176536,"byteStride":40,"target":34962},{"buffer":0,"byteLength":89608,"byteOffset":2624576,"byteStride":8,"target":34962}],"accessors":[{"bufferView":5,"componentType":5126,"count":6712,"type":"VEC3","max":[0.003359,0.045282,0.034922],"min":[-0.003272,0.0207009986,0.0103369989]},{"bufferView":5,"componentType":5126,"count":6712,"type":"VEC3","byteOffset":12},{"bufferView":5,"componentType":5126,"count":6712,"type":"VEC4","byteOffset":24},{"bufferView":6,"componentType":5126,"count":6712,"type":"VEC2"},{"bufferView":0,"componentType":5125,"count":31248,"type":"SCALAR"},{"bufferView":7,"componentType":5126,"count":9473,"type":"VEC3","max":[0.031953,0.059918,0.048432],"min":[-0.051203005,-0.061484,0.00124599971]},{"bufferView":7,"componentType":5126,"count":9473,"type":"VEC3","byteOffset":12},{"bufferView":7,"componentType":5126,"count":9473,"type":"VEC4","byteOffset":24},{"bufferView":8,"componentType":5126,"count":9473,"type":"VEC2"},{"bufferView":1,"componentType":5125,"count":52212,"type":"SCALAR"},{"bufferView":9,"componentType":5126,"count":9251,"type":"VEC3","max":[0.024862,0.0622,0.045825],"min":[-0.032514,-0.035524,0.00125600025]},{"bufferView":9,"componentType":5126,"count":9251,"type":"VEC3","byteOffset":12},{"bufferView":9,"componentType":5126,"count":9251,"type":"VEC4","byteOffset":24},{"bufferView":10,"componentType":5126,"count":9251,"type":"VEC2"},{"bufferView":2,"componentType":5125,"count":49944,"type":"SCALAR"},{"bufferView":11,"componentType":5126,"count":2276,"type":"VEC3","max":[0.027052,0.047345005,0.001635],"min":[-0.041483,-0.04743,0.00106]},{"bufferView":11,"componentType":5126,"count":2276,"type":"VEC3","byteOffset":12},{"bufferView":11,"componentType":5126,"count":2276,"type":"VEC4","byteOffset":24},{"bufferView":12,"componentType":5126,"count":2276,"type":"VEC2"},{"bufferView":3,"componentType":5125,"count":12612,"type":"SCALAR"},{"bufferView":13,"componentType":5126,"count":11201,"type":"VEC3","max":[0.031171,0.051586,0.050806],"min":[-0.0514709949,-0.058097,0.00510000065]},{"bufferView":13,"componentType":5126,"count":11201,"type":"VEC3","byteOffset":12},{"bufferView":13,"componentType":5126,"count":11201,"type":"VEC4","byteOffset":24},{"bufferView":14,"componentType":5126,"count":11201,"type":"VEC2"},{"bufferView":4,"componentType":5125,"count":65574,"type":"SCALAR"}],"images":[{"name":"logitech_mx_master_3s.jpg","uri":"logitech_mx_master_3s.jpg","mimeType":"image/jpeg"},{"name":"logitech_mx_master_3s.png","uri":"logitech_mx_master_3s.png","mimeType":"image/png"},{"name":"logitech_mx_master_3s.png","uri":"logitech_mx_master_3s_0.png","mimeType":"image/png"},{"name":"logitech_mx_master_3s.jpg","uri":"logitech_mx_master_3s_0.jpg","mimeType":"image/jpeg"}],"materials":[{"name":"Logi","pbrMetallicRoughness":{"baseColorTexture":{"index":0},"metallicRoughnessTexture":{"index":1}},"normalTexture":{"index":2},"occlusionTexture":{"index":1},"emissiveTexture":{"index":3},"emissiveFactor":[1,1,1],"doubleSided":true}],"meshes":[{"name":"Object_0","primitives":[{"attributes":{"POSITION":0,"NORMAL":1,"TANGENT":2,"TEXCOORD_0":3},"indices":4,"material":0}]},{"name":"Object_1","primitives":[{"attributes":{"POSITION":5,"NORMAL":6,"TANGENT":7,"TEXCOORD_0":8},"indices":9,"material":0}]},{"name":"Object_2","primitives":[{"attributes":{"POSITION":10,"NORMAL":11,"TANGENT":12,"TEXCOORD_0":13},"indices":14,"material":0}]},{"name":"Object_3","primitives":[{"attributes":{"POSITION":15,"NORMAL":16,"TANGENT":17,"TEXCOORD_0":18},"indices":19,"material":0}]},{"name":"Object_4","primitives":[{"attributes":{"POSITION":20,"NORMAL":21,"TANGENT":22,"TEXCOORD_0":23},"indices":24,"material":0}]}],"samplers":[{"minFilter":9987}],"scene":0,"scenes":[{"name":"logitech_mx_master_3s","nodes":[6]}],"textures":[{"source":0,"sampler":0},{"source":1,"sampler":0},{"source":2,"sampler":0},{"source":3,"sampler":0}]}